<?xml version="1.0" standalone="no"?>
<!DOCTYPE svg PUBLIC "-//W3C//DTD SVG 20010904//EN"
 "http://www.w3.org/TR/2001/REC-SVG-20010904/DTD/svg10.dtd">
<svg version="1.0" xmlns="http://www.w3.org/2000/svg"
 width="1200.000000pt" height="1200.000000pt" viewBox="0 0 1200.000000 1200.000000"
 preserveAspectRatio="xMidYMid meet">
<metadata>
Created by potrace 1.15, written by Peter Selinger 2001-2017
</metadata>
<g transform="translate(0.000000,1200.000000) scale(0.100000,-0.100000)"
fill="#000000" stroke="none">
<path d="M5750 10794 c-325 -24 -607 -64 -855 -124 -1155 -276 -2153 -954
-2832 -1924 -557 -796 -863 -1752 -863 -2695 0 -800 165 -1511 509 -2201 651
-1303 1874 -2248 3292 -2544 351 -74 611 -100 994 -100 374 0 633 25 977 95
692 140 1396 464 1953 897 403 314 726 653 1016 1068 365 522 632 1144 759
1766 68 337 94 591 93 928 -2 798 -165 1504 -504 2183 -132 264 -272 491 -444
722 -806 1082 -2030 1777 -3365 1910 -149 15 -616 27 -730 19z m585 -124 c291
-25 531 -63 785 -126 811 -200 1541 -606 2139 -1189 387 -377 674 -768 916
-1250 269 -535 422 -1063 481 -1665 24 -244 25 -710 1 -918 -88 -775 -331
-1457 -745 -2087 -719 -1096 -1877 -1848 -3163 -2054 -295 -48 -400 -55 -754
-55 -353 0 -459 7 -754 55 -1170 187 -2242 832 -2970 1788 -188 248 -328 475
-471 766 -111 227 -157 337 -230 550 -172 505 -249 989 -251 1562 0 240 9 375
42 612 183 1319 945 2517 2069 3253 271 178 528 313 810 425 464 186 898 288
1410 332 139 12 546 12 685 1z"/>
<path d="M5691 10549 c-945 -60 -1868 -430 -2610 -1047 -830 -691 -1390 -1655
-1575 -2712 -52 -296 -61 -412 -61 -760 1 -456 33 -734 130 -1128 432 -1747
1854 -3077 3625 -3391 1647 -291 3315 339 4364 1650 117 146 301 416 392 574
349 609 548 1282 595 2005 21 333 -13 789 -86 1155 -252 1260 -1014 2343
-2119 3013 -152 92 -496 264 -641 321 -659 258 -1327 364 -2014 320z m599
-114 c378 -17 873 -121 1253 -265 611 -230 1137 -569 1592 -1025 323 -323 567
-649 778 -1040 434 -802 612 -1765 496 -2675 -84 -663 -325 -1311 -694 -1870
-983 -1487 -2741 -2246 -4495 -1940 -727 128 -1429 448 -2015 921 -898 725
-1482 1777 -1620 2919 -33 273 -43 624 -25 861 72 944 437 1839 1038 2544 113
132 341 364 472 479 745 657 1726 1053 2710 1095 180 8 253 7 510 -4z"/>
<path d="M5860 9358 c-84 -12 -198 -51 -280 -96 -429 -235 -595 -743 -385
-1179 106 -219 300 -387 534 -465 90 -29 106 -31 246 -32 83 -1 166 3 187 7
l36 8 -35 87 c-19 48 -39 98 -45 111 l-9 24 -16 -24 c-32 -47 -67 -79 -89 -79
-50 0 -107 77 -150 202 -38 112 -40 108 71 108 52 0 95 4 95 8 0 5 -11 35 -24
68 l-24 59 -90 3 -90 3 -9 67 c-10 83 -8 419 4 487 l8 50 205 0 204 0 7 -40
c4 -22 8 -74 10 -115 l4 -75 -164 -5 -164 -5 229 -68 229 -67 199 0 198 0 -7
-37 c-3 -21 -9 -47 -11 -59 -5 -18 3 -23 55 -37 33 -9 65 -17 70 -17 12 0 18
28 30 135 47 406 -212 804 -609 938 -129 44 -275 56 -420 35z m167 -141 c44
-25 102 -127 136 -244 l16 -53 -179 0 -179 0 15 53 c24 84 81 193 119 226 40
35 41 35 72 18z m-273 -54 c-19 -44 -74 -210 -74 -225 0 -16 -13 -18 -141 -18
l-140 0 20 28 c49 68 141 141 244 196 77 40 104 46 91 19z m614 -36 c76 -43
176 -127 212 -178 l21 -29 -140 0 c-128 0 -141 2 -141 18 0 15 -55 180 -75
226 -7 17 -5 18 21 12 16 -4 62 -26 102 -49z m-721 -389 c-4 -24 -9 -78 -13
-120 l-6 -78 -190 0 -190 0 7 43 c7 48 19 93 41 155 l16 42 170 0 170 0 -5
-42z m1061 -11 c17 -45 42 -151 42 -179 0 -4 -85 -8 -189 -8 l-188 0 -7 78
c-3 42 -9 96 -12 120 l-6 42 170 0 171 0 19 -53z m-1074 -409 c4 -46 9 -98 13
-116 l5 -32 -173 2 -173 3 -22 70 c-12 39 -25 89 -29 113 l-7 42 190 0 189 0
7 -82z m66 -383 c15 -49 35 -107 44 -129 10 -21 15 -40 13 -42 -8 -8 -98 36
-170 82 -66 43 -187 157 -187 176 0 5 61 7 136 6 l136 -3 28 -90z"/>
<path d="M6098 8276 c9 -23 75 -188 147 -368 l131 -328 67 95 c37 52 71 95 75
95 4 0 57 -43 117 -95 61 -52 112 -94 115 -94 8 0 135 149 135 158 0 5 -53 53
-118 107 l-119 98 34 31 c18 16 56 50 84 75 l52 46 -368 110 -368 111 16 -41z"/>
<path d="M4854 6646 c-25 -25 -34 -43 -34 -68 0 -90 110 -135 174 -72 45 46
37 121 -17 154 -48 30 -83 26 -123 -14z"/>
<path d="M5580 6510 c0 -77 -3 -140 -6 -140 -3 0 -18 9 -33 19 -95 68 -266 39
-355 -59 -68 -75 -81 -113 -81 -230 0 -98 2 -109 29 -158 96 -173 305 -216
464 -96 37 29 38 28 79 -38 10 -16 25 -28 35 -28 17 0 18 24 18 435 l0 435
-75 0 -75 0 0 -140z m-89 -263 c55 -37 79 -81 79 -147 0 -177 -219 -236 -297
-80 -47 91 -12 205 72 240 40 17 111 11 146 -13z"/>
<path d="M6210 6201 l0 -421 80 0 80 0 0 84 0 83 126 6 c115 4 131 8 189 36
117 58 185 166 185 296 0 131 -68 238 -188 297 l-67 33 -202 4 -203 3 0 -421z
m372 249 c44 -13 93 -52 113 -91 19 -36 19 -112 1 -147 -39 -74 -102 -102
-231 -102 l-95 0 0 175 0 175 88 0 c48 0 104 -5 124 -10z"/>
<path d="M2710 6196 l0 -416 133 0 c220 0 323 34 417 137 27 29 61 79 77 111
26 52 28 66 28 172 0 106 -2 120 -28 172 -43 88 -107 152 -195 195 l-76 38
-178 3 -178 4 0 -416z m332 242 c51 -15 121 -77 147 -131 25 -52 28 -150 7
-202 -42 -100 -124 -153 -250 -162 l-76 -6 0 257 0 256 66 0 c37 0 84 -5 106
-12z"/>
<path d="M3687 6420 c-88 -23 -181 -99 -214 -177 -55 -132 -22 -311 72 -390
116 -99 279 -101 403 -6 20 15 37 22 41 16 37 -59 59 -83 74 -83 16 0 17 21
17 310 0 298 -1 310 -19 310 -10 0 -32 -17 -48 -37 l-30 -36 -34 25 c-84 63
-180 88 -262 68z m153 -172 c59 -41 75 -72 75 -147 0 -59 -4 -72 -28 -104 -36
-47 -74 -67 -129 -67 -63 0 -109 27 -135 80 -43 83 -19 198 49 240 47 28 125
27 168 -2z"/>
<path d="M7160 6415 c-141 -39 -230 -161 -230 -316 0 -127 63 -232 173 -288
58 -30 76 -34 141 -34 88 1 159 29 220 87 l40 37 -57 56 -56 57 -21 -27 c-12
-15 -35 -34 -50 -42 -30 -15 -110 -21 -110 -7 0 4 66 85 145 180 80 96 145
178 145 182 0 16 -75 73 -125 96 -67 31 -146 38 -215 19z m130 -152 c0 -13
-174 -236 -184 -237 -15 -2 -27 56 -21 99 12 88 74 145 158 145 26 0 47 -3 47
-7z"/>
<path d="M7790 6416 c-97 -26 -174 -98 -211 -195 -29 -76 -24 -204 10 -275 63
-128 208 -197 344 -161 55 14 128 53 142 75 11 17 20 11 53 -35 61 -86 62 -81
62 265 0 289 -1 310 -17 310 -10 0 -32 -16 -49 -36 l-30 -37 -47 36 c-50 38
-130 67 -181 66 -17 0 -51 -6 -76 -13z m149 -161 c40 -20 79 -69 91 -115 27
-102 -55 -210 -160 -210 -99 0 -155 62 -155 170 0 77 26 128 78 154 40 20 109
20 146 1z"/>
<path d="M8320 6095 l0 -315 75 0 75 0 0 186 c0 205 7 236 59 267 21 12 52 17
115 17 l86 0 0 80 0 80 -70 0 c-93 0 -159 -15 -213 -50 l-45 -29 -26 40 c-15
21 -33 39 -41 39 -13 0 -15 -43 -15 -315z"/>
<path d="M4152 6391 c1 -5 55 -144 118 -310 l115 -301 77 0 76 0 28 73 c15 39
67 175 116 302 48 126 88 233 88 237 0 5 -38 8 -84 8 l-84 0 -30 -82 c-16 -46
-46 -131 -67 -190 -21 -60 -40 -108 -44 -108 -3 0 -35 85 -71 188 l-66 187
-88 3 c-51 2 -86 -1 -84 -7z"/>
<path d="M4840 6090 l0 -310 80 0 80 0 0 310 0 310 -80 0 -80 0 0 -310z"/>
<path d="M8895 6384 c-43 -22 -64 -44 -86 -86 -40 -79 -15 -190 53 -241 50
-37 63 -40 198 -46 109 -5 125 -8 128 -24 8 -43 -10 -47 -209 -47 l-189 0 0
-80 0 -80 183 0 c100 0 200 5 222 11 89 24 145 98 145 189 0 57 -15 93 -57
132 -42 40 -74 48 -186 48 -124 0 -145 5 -153 36 -12 49 4 54 187 54 l169 0 0
75 0 75 -187 0 c-151 0 -194 -3 -218 -16z"/>
<path d="M3744 5271 c-65 -16 -124 -87 -124 -150 0 -26 -4 -31 -25 -31 -23 0
-25 -4 -25 -45 0 -41 2 -45 25 -45 l25 0 0 -140 0 -140 45 0 45 0 0 140 0 140
55 0 55 0 0 45 0 45 -55 0 c-54 0 -55 0 -55 29 0 42 40 71 96 71 l44 0 0 45 0
45 -37 -1 c-21 -1 -52 -4 -69 -8z"/>
<path d="M3900 5165 c0 -73 -1 -75 -25 -75 -23 0 -25 -4 -25 -45 0 -41 2 -45
25 -45 24 0 25 -2 25 -76 0 -129 52 -191 170 -201 l60 -6 0 47 0 46 -44 0
c-29 0 -52 7 -70 21 -24 19 -26 26 -26 95 l0 74 70 0 70 0 0 45 0 45 -70 0
-70 0 0 75 0 75 -45 0 -45 0 0 -75z"/>
<path d="M7640 4980 l0 -260 45 0 45 0 0 260 0 260 -45 0 -45 0 0 -260z"/>
<path d="M2826 5210 c-39 -12 -83 -56 -97 -97 -15 -47 -4 -97 32 -138 36 -41
80 -55 170 -55 71 0 89 -10 89 -50 0 -45 -15 -50 -147 -50 l-123 0 0 -51 0
-51 133 4 c145 4 166 11 209 71 29 41 30 116 2 154 -41 55 -68 67 -165 71 -81
4 -92 7 -106 28 -14 22 -14 26 1 49 16 25 19 25 146 25 l130 0 0 50 0 50 -122
-1 c-68 0 -136 -5 -152 -9z"/>
<path d="M6060 4970 l0 -253 103 5 c84 5 112 10 154 32 83 42 133 123 133 216
0 92 -46 168 -130 214 -45 24 -66 29 -156 34 l-104 5 0 -253z m233 125 c31
-23 67 -90 67 -127 0 -41 -42 -109 -80 -129 -20 -11 -55 -19 -82 -19 l-48 0 0
151 0 151 58 -4 c36 -2 68 -11 85 -23z"/>
<path d="M3325 5105 c-5 -2 -22 -6 -37 -9 -76 -17 -135 -116 -125 -208 19
-157 197 -222 315 -114 92 83 69 258 -40 309 -35 16 -96 29 -113 22z m82 -107
c73 -60 37 -188 -52 -188 -47 0 -71 14 -90 50 -30 57 -7 127 49 151 25 10 73
4 93 -13z"/>
<path d="M4885 5105 c-5 -2 -22 -6 -37 -9 -37 -8 -98 -63 -114 -103 -30 -71
-9 -178 43 -225 29 -26 88 -48 130 -48 36 0 60 9 111 41 21 13 24 12 47 -16
l24 -30 1 188 c0 103 -4 187 -9 187 -5 0 -15 -10 -23 -22 l-14 -21 -45 25
c-43 25 -94 40 -114 33z m53 -96 c76 -26 88 -136 21 -183 -63 -44 -149 5 -149
84 0 53 14 78 53 95 39 17 37 17 75 4z"/>
<path d="M5590 5101 c-56 -18 -91 -43 -116 -86 -23 -40 -26 -54 -22 -114 3
-56 9 -75 32 -106 55 -72 156 -95 236 -52 64 34 71 50 36 86 l-29 30 -29 -24
c-25 -21 -88 -36 -88 -20 0 2 38 49 85 104 47 56 85 104 85 109 0 11 -39 46
-65 60 -30 15 -97 22 -125 13z"/>
<path d="M6665 5105 c-5 -2 -22 -6 -37 -9 -37 -8 -98 -63 -114 -103 -29 -68
-7 -181 42 -225 30 -26 89 -48 131 -48 44 0 110 28 135 57 17 19 16 21 -17 53
-28 27 -35 30 -40 18 -8 -20 -56 -41 -85 -36 -18 3 -10 17 70 110 l90 107 -22
21 c-40 37 -120 66 -153 55z"/>
<path d="M7376 5098 c-91 -24 -153 -139 -127 -236 37 -137 209 -188 309 -92
l24 23 -30 30 -30 30 -27 -22 c-25 -19 -85 -30 -85 -16 0 3 38 52 85 107 47
56 85 105 85 109 0 15 -65 57 -105 68 -46 12 -47 12 -99 -1z"/>
<path d="M7955 5105 c-5 -2 -22 -6 -37 -9 -76 -17 -135 -116 -125 -208 19
-157 197 -222 315 -114 92 83 69 258 -40 309 -35 16 -96 29 -113 22z m82 -107
c73 -60 37 -188 -52 -188 -47 0 -71 14 -90 50 -30 57 -7 127 49 151 25 10 73
4 93 -13z"/>
<path d="M8367 5096 c-21 -8 -47 -22 -58 -32 -18 -17 -20 -16 -42 4 -13 12
-26 22 -30 22 -4 0 -7 -115 -7 -255 l0 -255 45 0 45 0 0 85 0 85 36 -15 c68
-28 135 -16 187 33 43 41 59 79 59 142 0 98 -48 164 -137 189 -49 13 -51 13
-98 -3z m114 -102 c11 -10 24 -34 30 -54 30 -100 -89 -174 -162 -101 -49 50
-37 134 26 170 26 15 82 7 106 -15z"/>
<path d="M8790 5101 c-56 -18 -91 -43 -116 -86 -23 -40 -26 -54 -22 -114 3
-56 9 -75 32 -106 55 -72 156 -95 236 -52 64 34 71 50 36 86 l-29 30 -29 -24
c-25 -21 -88 -36 -88 -20 0 2 38 49 85 104 47 56 85 104 85 109 0 11 -39 46
-65 60 -30 15 -97 22 -125 13z"/>
<path d="M4192 4945 l3 -145 36 -36 c45 -45 101 -55 158 -29 35 16 41 16 69 1
59 -30 121 -16 172 39 24 25 25 33 28 171 l3 144 -45 0 -46 0 0 -128 c0 -138
-5 -152 -50 -152 -45 0 -50 14 -50 152 l0 128 -45 0 -45 0 0 -128 c0 -138 -5
-152 -50 -152 -45 0 -50 14 -50 152 l0 128 -46 0 -45 0 3 -145z"/>
<path d="M5180 4905 l0 -185 39 0 39 0 4 121 c3 113 5 122 27 140 16 13 39 19
77 19 l54 0 0 45 0 45 -62 0 c-46 0 -72 -6 -98 -21 l-34 -21 -17 21 c-10 12
-20 21 -23 21 -3 0 -6 -83 -6 -185z"/>
<path d="M6860 5083 c1 -5 31 -87 68 -183 l68 -175 45 -3 45 -3 70 186 71 185
-51 0 -51 0 -39 -115 c-22 -63 -43 -112 -47 -108 -4 5 -24 56 -44 116 l-38
107 -48 0 c-27 0 -49 -3 -49 -7z"/>
<path d="M9040 4905 l0 -185 45 0 45 0 0 114 c0 99 3 117 21 140 18 23 28 26
80 26 l59 0 0 45 0 45 -62 0 c-46 0 -72 -6 -98 -21 l-34 -21 -17 21 c-35 43
-39 27 -39 -164z"/>
<path d="M3000 4140 l0 -60 3000 0 3000 0 0 60 0 60 -3000 0 -3000 0 0 -60z"/>
</g>
</svg>
