<svg height="512pt" viewBox="-102 0 512 512" width="512pt" xmlns="http://www.w3.org/2000/svg"><g fill="#787680"><path d="m31.171875 7.5h268.488281v497h-268.488281zm0 0"/><path d="m30.929688 319.671875h-23.429688v-126h23.429688zm0 0"/><path d="m30.929688 163h-23.429688v-67.007812h23.429688zm0 0"/></g><path d="m141.726562 269.253906h-11.367187c-3.671875 3.675782-5.734375 5.734375-9.410156 9.410156v65.078126h-13.734375l-13.734375 14.304687v73.378906l27.46875 27.738281v45.335938h88.660156v-45.46875l27.742187-27.472656v-79.230469c-3.570312-3.566406-5.570312-5.570313-9.140624-9.140625h-17.398438v-5.664062c-1.886719-1.886719-2.945312-2.945313-4.832031-4.832032h-24.65625v-8.257812c-2.335938-2.335938-3.648438-3.648438-5.984375-5.984375h-18.21875l-5.984375 5.984375v-45.769532c-3.675781-3.675781-5.734375-5.734374-9.410157-9.410156zm0 0" fill="#ffdaaa"/><path d="m31.171875 70.667969v370.667969h72.121094l-9.8125-9.910157v-73.375l13.734375-14.308593h13.738281v-65.078126c3.675781-3.671874 5.734375-5.734374 9.410156-9.40625h11.363281c3.675782 3.671876 5.738282 5.734376 9.410157 9.40625v45.773438l5.984375-5.988281h18.21875c2.335937 2.339843 3.648437 3.648437 5.984375 5.988281v8.253906h24.65625c1.886719 1.886719 2.945312 2.945313 4.832031 4.832032v5.667968h17.398438c3.570312 3.570313 5.570312 5.570313 9.140624 9.140625v79.230469l-9.867187 9.773438h72.175781v-370.667969zm0 0" fill="#b3d8f4"/><path d="m146.457031 187.480469 16.085938 60.113281h91.296875l16.085937-60.113281zm0 0" fill="#57a4ff"/><path d="m259.027344 282.402344c0 7.976562-6.464844 14.441406-14.441406 14.441406-7.976563 0-14.441407-6.464844-14.441407-14.441406 0-7.976563 6.464844-14.441406 14.441407-14.441406 7.976562 0 14.441406 6.464843 14.441406 14.441406zm0 0" fill="#57a4ff"/><path d="m116.457031 187.480469 16.085938 60.113281h91.296875l16.085937-60.113281zm0 0" fill="#fff"/><path d="m229.027344 282.402344c0 7.976562-6.464844 14.441406-14.441406 14.441406-7.976563 0-14.441407-6.464844-14.441407-14.441406 0-7.976563 6.464844-14.441406 14.441407-14.441406 7.976562 0 14.441406 6.464843 14.441406 14.441406zm0 0" fill="#fff"/><path d="m31.171875 7.5h30v497h-30zm0 0" fill="#57565c"/><path d="m123.480469 431.425781v-73.378906l13.734375-14.304687h13.738281v-65.078126l.09375-.09375c-3.617187-3.617187-5.675781-5.671874-9.320313-9.316406h-11.363281l-9.410156 9.410156v65.078126h-13.738281l-13.734375 14.304687v73.378906l27.46875 27.738281v45.335938h30v-45.335938zm0 0" fill="#ff9478"/><path d="m181.136719 324.25v.183594l.09375-.089844zm0 0" fill="#ff9478"/><path d="m181.136719 278.664062c-3.675781-3.675781-5.734375-5.734374-9.410157-9.410156h-11.367187c-3.640625 3.644532-5.699219 5.699219-9.316406 9.316406l.09375.09375v45.769532l5.984375-5.984375h18.21875c2.273437 2.273437 3.574218 3.578125 5.796875 5.800781zm0 0" fill="#57a4ff"/><path d="m31.171875 70.667969h30v370.667969h-30zm0 0" fill="#57a4ff"/><path d="m267.351562 352.328125c-3.570312-3.566406-5.570312-5.570313-9.140624-9.140625h-17.398438v-5.664062c-1.886719-1.886719-2.945312-2.945313-4.832031-4.832032h-24.65625v-8.257812c-2.335938-2.335938-3.648438-3.648438-5.984375-5.984375h-18.21875l-5.890625 5.890625.09375.09375v8.257812h24.65625c1.886719 1.886719 2.945312 2.945313 4.832031 4.832032v5.664062h17.398438c3.570312 3.570312 5.570312 5.574219 9.140624 9.140625v79.230469l-9.867187 9.773437h30l9.867187-9.773437zm0 0" fill="#57a4ff"/><path d="m116.457031 187.480469 16.085938 60.113281h30l-16.085938-60.113281zm0 0" fill="#e0e0e2"/><path d="m214.585938 303.753906c12.101562 0 21.941406-9.84375 21.941406-21.945312 0-12.097656-9.84375-21.941406-21.941406-21.941406h-43.988282v15h23.171875c-.730469 2.183593-1.125 4.519531-1.125 6.941406 0 12.101562 9.84375 21.945312 21.941407 21.945312zm6.941406-21.945312c0 3.828125-3.113282 6.945312-6.941406 6.945312-3.828126 0-6.941407-3.117187-6.941407-6.945312s3.113281-6.941406 6.941407-6.941406c3.828124 0 6.941406 3.113281 6.941406 6.941406zm0 0"/><path d="m251.757812 194.390625v-15h-129.554687l-4.1875-15.667969h-37.953125v15h26.433594l18.027344 67.46875.035156-.011718.738281 2.757812 1.515625 5.5625h102.78125l16.085938-60.109375zm-21.605468 0-4.027344 15.054687h-23.625v-15.054687zm-42.652344 0v15.054687h-18.621094v-15.054687zm-33.621094 0v15.054687h-23.621094l-4.03125-15.054687zm-15.578125 45.109375-4.03125-15.054688h19.609375v15.054688zm30.578125 0v-15.054688h18.621094v15.054688zm33.621094 0v-15.054688h19.609375l-4.027344 15.054688zm0 0"/><path d="m244.851562 349.222656-13.535156-13.53125h-13.003906v-1.277344l-9.226562-9.222656h-20.261719v-3.863281l-10.378907-10.378906h-19.808593v-35.390625l-13.800781-13.804688h-17.582032l-13.804687 13.804688v60.683594h-9.429688l-18.039062 18.789062v79.480469l27.46875 27.738281v49.75h103.660156v-49.839844l27.742187-27.472656zm-15 79.210938-27.742187 27.46875v41.097656h-73.660156v-30.335938h22.6875v-15h-27.058594l-23.097656-23.324218v-67.273438l9.429687-9.824218h3.042969v25.757812h15v-95.230469l5.015625-5.015625h5.152344l5.019531 5.015625v95.230469h15v-49.460938l1.589844-1.589843h12.003906l1.589844 1.589843v49.460938h15v-36.808594h14.054687l.4375.4375v36.371094h15v-26.3125h6.792969l4.746094 4.746094v73zm0 0"/><path d="m23.671875 0v88.492188h-23.671875v82.007812h23.671875v15.671875h-23.671875v141h23.671875v184.828125h77.277344v-15h-62.277344v-48.167969h36.472656v-15h-36.472656v-355.664062h253.488281v355.664062h-36.253906v15h36.253906v48.167969h-62.550781v15h77.550781v-512zm-.242187 155.5h-8.429688v-52.007812h8.429688zm0 156.671875h-8.429688v-111h8.429688zm15.242187-249.003906v-48.167969h253.488281v48.167969zm0 0"/><path d="m227.664062 45.351562h-74.5v-15h74.5zm-84.5 0h-15v-15h15zm-25 0h-15v-15h15zm0 0" fill="#fff"/><path d="m277.328125 103.164062h-65.949219v-15h65.949219zm-75.949219 0h-15v-15h15zm-25 0h-15v-15h15zm0 0" fill="#fff"/></svg>