<svg height="511pt" viewBox="0 -39 511.9998 511" width="511pt" xmlns="http://www.w3.org/2000/svg"><path d="m406.03125 106.429688c0 29.25-23.714844 52.960937-52.960938 52.960937-29.25 0-52.960937-23.710937-52.960937-52.960937s23.710937-52.960938 52.960937-52.960938c29.246094 0 52.960938 23.710938 52.960938 52.960938zm0 0" fill="#fbb540"/><path d="m44.132812 18.164062h176.535157c19.5 0 35.308593 15.804688 35.308593 35.304688v335.417969c0 19.496093-15.808593 35.304687-35.308593 35.304687h-176.535157c-19.5 0-35.304687-15.808594-35.304687-35.304687v-335.417969c0-19.5 15.804687-35.304688 35.304687-35.304688zm0 0" fill="#ebebeb"/><path d="m220.667969 353.578125h-176.535157v-291.28125c0-9.75 7.90625-17.652344 17.65625-17.652344h141.226563c9.75 0 17.652344 7.902344 17.652344 17.652344zm0 0" fill="#64a8b2"/><path d="m88.265625 35.816406h88.269531v26.480469c0 9.75-7.902344 17.652344-17.652344 17.652344h-52.960937c-9.75 0-17.65625-7.902344-17.65625-17.652344zm0 0" fill="#ebebeb"/><path d="m150.054688 397.710938h-35.308594c-4.875 0-8.824219-3.949219-8.824219-8.824219s3.949219-8.828125 8.824219-8.828125h35.308594c4.875 0 8.828124 3.953125 8.828124 8.828125s-3.953124 8.824219-8.828124 8.824219zm0 0" fill="#d9d9d9"/><path d="m370.722656 150.5625h-2.4375c-7.140625-20.558594-29.601562-31.4375-50.160156-24.292969-2.984375 1.035157-5.832031 2.425781-8.484375 4.140625-11.203125-29.636718-44.316406-44.582031-73.953125-33.375-22.273438 8.417969-37.027344 29.71875-37.085938 53.527344 0 .75.078126 1.476562.113282 2.207031-23.222656 7.171875-36.234375 31.8125-29.0625 55.035157 5.710937 18.496093 22.832031 31.085937 42.1875 31.027343h158.882812c24.375 0 44.132813-19.761719 44.132813-44.136719 0-24.371093-19.757813-44.132812-44.132813-44.132812zm0 0" fill="#b3e4e8"/><path d="m370.722656 106.429688c-3.648437 0-6.917968-2.238282-8.234375-5.640626-1.140625-2.933593-3.757812-5.039062-6.867187-5.523437-4.84375-.554687-8.320313-4.929687-7.769532-9.773437.554688-4.84375 4.929688-8.320313 9.773438-7.765626.214844.023438.429688.054688.644531.097657 9.34375 1.460937 17.207031 7.78125 20.644531 16.59375 1.757813 4.546875-.5 9.65625-5.046874 11.417969-1.003907.386718-2.070313.589843-3.144532.59375zm0 0" fill="#f3af3e"/><g fill="#f7ba61"><path d="m310.921875 39.25c-3.375.007812-6.457031-1.90625-7.945313-4.933594l-7.800781-15.84375c-2.152343-4.386718-.339843-9.691406 4.046875-11.84375 4.386719-2.152344 9.6875-.339844 11.839844 4.046875l7.804688 15.890625c.585937 1.214844.886718 2.550782.882812 3.898438 0 4.875-3.953125 8.828125-8.828125 8.828125zm0 0"/><path d="m450.164062 152.558594c-.96875 0-1.925781-.160156-2.84375-.46875l-16.71875-5.683594c-3.578124-1.21875-5.984374-4.578125-5.984374-8.359375.003906-.964844.160156-1.925781.46875-2.839844 1.566406-4.617187 6.578124-7.089843 11.195312-5.523437.003906 0 .011719.003906.015625.003906l16.707031 5.675781c3.582032 1.21875 5.992188 4.585938 5.984375 8.367188 0 .96875-.15625 1.925781-.464843 2.84375-1.21875 3.578125-4.578126 5.984375-8.359376 5.984375zm0 0"/><path d="m429.085938 79.457031c-4.875.027344-8.851563-3.898437-8.882813-8.773437-.019531-3.402344 1.917969-6.515625 4.980469-8l15.886718-7.800782c4.386719-2.152343 9.691407-.339843 11.84375 4.046876 2.152344 4.386718.339844 9.6875-4.046874 11.839843l-15.890626 7.804688c-1.210937.585937-2.542968.886719-3.890624.882812zm0 0"/><path d="m378.320312 34.878906c-4.871093.003906-8.828124-3.945312-8.832031-8.820312 0-.972656.160157-1.9375.476563-2.855469l5.683594-16.710937c1.566406-4.613282 6.578124-7.089844 11.195312-5.523438 3.582031 1.21875 5.992188 4.582031 5.988281 8.367188 0 .964843-.15625 1.925781-.464843 2.84375l-5.675782 16.714843c-1.21875 3.582031-4.585937 5.992188-8.371094 5.984375zm0 0"/></g><path d="m503.125 406.539062c-3.363281.019532-6.441406-1.875-7.945312-4.882812l-8.828126-17.652344c-2.179687-4.363281-.40625-9.667968 3.957032-11.84375 4.363281-2.179687 9.664062-.410156 11.84375 3.953125l8.828125 17.652344c2.179687 4.363281.410156 9.664063-3.949219 11.84375-1.214844.605469-2.550781.921875-3.90625.929687zm0 0" fill="#b8eaee"/><path d="m335.414062 353.578125c-3.359374.019531-6.441406-1.875-7.941406-4.882813l-8.828125-17.652343c-2.179687-4.363281-.410156-9.664063 3.953125-11.84375 4.363282-2.179688 9.667969-.410157 11.847656 3.953125l8.828126 17.652344c2.175781 4.363281.410156 9.664062-3.953126 11.84375-1.210937.605468-2.546874.921874-3.90625.929687zm0 0" fill="#b8eaee"/><path d="m379.550781 300.617188c-3.363281.019531-6.441406-1.875-7.945312-4.878907l-8.828125-17.65625c-2.179688-4.363281-.40625-9.664062 3.957031-11.84375 4.363281-2.179687 9.664063-.410156 11.84375 3.953125l8.828125 17.652344c2.179688 4.363281.410156 9.664062-3.953125 11.84375-1.210937.605469-2.546875.925781-3.902344.929688zm0 0" fill="#c0f5f9"/><path d="m432.507812 406.539062c-3.359374.019532-6.441406-1.875-7.941406-4.882812l-8.828125-17.652344c-2.179687-4.363281-.40625-9.667968 3.957031-11.84375 4.359376-2.179687 9.664063-.410156 11.84375 3.953125l8.828126 17.652344c2.175781 4.363281.410156 9.664063-3.953126 11.84375-1.210937.605469-2.546874.921875-3.90625.929687zm0 0" fill="#c0f5f9"/><path d="m361.894531 406.539062c-3.359375.019532-6.441406-1.875-7.941406-4.882812l-8.828125-17.652344c-2.179688-4.363281-.410156-9.667968 3.953125-11.84375 4.363281-2.179687 9.667969-.410156 11.847656 3.953125l8.824219 17.652344c2.179688 4.363281.410156 9.664063-3.949219 11.84375-1.210937.605469-2.550781.921875-3.90625.929687zm0 0" fill="#c0f5f9"/><path d="m406.03125 353.578125c-3.363281.019531-6.441406-1.875-7.945312-4.882813l-8.828126-17.652343c-2.179687-4.363281-.40625-9.664063 3.957032-11.84375 4.363281-2.179688 9.664062-.410157 11.84375 3.953125l8.828125 17.652344c2.179687 4.363281.410156 9.664062-3.949219 11.84375-1.214844.605468-2.550781.921874-3.90625.929687zm0 0" fill="#b3e4e8"/><path d="m450.164062 300.617188c-3.363281.019531-6.441406-1.875-7.945312-4.878907l-8.828125-17.65625c-2.175781-4.363281-.40625-9.664062 3.957031-11.84375 4.363282-2.179687 9.664063-.410156 11.84375 3.953125l8.828125 17.652344c2.179688 4.363281.410157 9.664062-3.949219 11.84375-1.214843.605469-2.550781.925781-3.90625.929688zm0 0" fill="#b3e4e8"/><path d="m308.933594 300.617188c-3.359375.019531-6.441406-1.875-7.941406-4.878907l-8.828126-17.65625c-2.179687-4.363281-.40625-9.664062 3.953126-11.84375 4.363281-2.179687 9.667968-.410156 11.847656 3.953125l8.828125 17.652344c2.175781 4.363281.410156 9.664062-3.953125 11.84375-1.210938.605469-2.546875.925781-3.90625.929688zm0 0" fill="#b8eaee"/><path d="m476.644531 353.578125c-3.363281.019531-6.441406-1.875-7.945312-4.882813l-8.828125-17.652343c-2.175782-4.363281-.40625-9.664063 3.957031-11.84375 4.363281-2.179688 9.664063-.410157 11.84375 3.953125l8.828125 17.652344c2.179688 4.363281.410156 9.664062-3.949219 11.84375-1.214843.605468-2.550781.921874-3.90625.929687zm0 0" fill="#c0f5f9"/><path d="m150.054688 380.058594h-35.308594c-4.875 0-8.824219 3.953125-8.824219 8.828125s3.949219 8.824219 8.824219 8.824219h35.308594c4.875 0 8.828124-3.949219 8.828124-8.824219s-3.953124-8.828125-8.828124-8.828125zm0 0"/><path d="m370.722656 247.65625c29.25-.023438 52.941406-23.753906 52.917969-53.003906-.015625-18.722656-9.917969-36.046875-26.039063-45.5625 23.589844-24.601563 22.773438-63.667969-1.828124-87.261719-24.601563-23.59375-63.667969-22.773437-87.261719 1.828125-8.421875 8.78125-14.0625 19.859375-16.207031 31.835938-8.257813-5.53125-17.660157-9.128907-27.503907-10.519532v-31.503906c-.027343-24.359375-19.769531-44.101562-44.132812-44.132812h-176.535157c-24.363281.027343-44.1054682 19.769531-44.132812 44.132812v335.417969c.0273438 24.359375 19.769531 44.101562 44.132812 44.132812h176.535157c24.363281-.03125 44.105469-19.773437 44.132812-44.132812v-141.230469zm-17.652344-185.359375c24.371094.011719 44.121094 19.785156 44.105469 44.160156-.007812 14.253907-6.902343 27.628907-18.507812 35.90625-1.5-.230469-3.011719-.414062-4.546875-.511719-11.105469-22.152343-37.203125-32.273437-60.339844-23.398437-1.371094-2.449219-2.894531-4.808594-4.5625-7.0625-2.816406-24.132813 14.460938-45.980469 38.59375-48.796875 1.742188-.203125 3.5-.304688 5.257812-.296875zm-51.699218 71.214844c1.710937 4.5625 6.796875 6.875 11.363281 5.164062.582031-.214843 1.140625-.496093 1.664063-.832031 14.167968-9.199219 33.109374-5.175781 42.308593 8.988281 1.359375 2.089844 2.453125 4.335938 3.265625 6.6875 1.25 3.519531 4.585938 5.871094 8.324219 5.871094h2.425781c19.5 0 35.308594 15.804687 35.308594 35.304687s-15.808594 35.308594-35.308594 35.308594h-158.882812c-19.429688.144532-35.300782-15.488281-35.445313-34.917968-.117187-15.589844 10.039063-29.402344 24.960938-33.929688 3.789062-1.191406 6.316406-4.761719 6.179687-8.730469l-.105468-1.863281c.082031-26.8125 21.886718-48.480469 48.699218-48.394531 20.117188.0625 38.113282 12.527343 45.242188 31.34375zm-195.449219-44.734375h52.960937c14.621094 0 26.480469-11.855469 26.480469-26.480469v-8.828125h17.652344c4.875 0 8.824219 3.953125 8.824219 8.828125v39.039063c-13.027344 11.625-20.921875 27.9375-21.949219 45.371093-26.574219 12.058594-38.339844 43.375-26.28125 69.949219 8.582031 18.917969 27.457031 31.046875 48.230469 31v97.09375h-158.878906v-282.453125c0-4.875 3.953124-8.828125 8.828124-8.828125h17.652344v8.828125c0 14.625 11.855469 26.480469 26.480469 26.480469zm141.226563 300.109375c0 14.621093-11.855469 26.476562-26.480469 26.476562h-176.535157c-14.625 0-26.480468-11.855469-26.480468-26.476562v-335.417969c0-14.625 11.855468-26.480469 26.480468-26.480469h176.535157c14.625 0 26.480469 11.855469 26.480469 26.480469v31.554688c-6.085938.8125-12.027344 2.472656-17.652344 4.9375v-27.664063c0-14.625-11.855469-26.480469-26.480469-26.480469h-26.480469c-4.875 0-8.828125 3.953125-8.828125 8.828125v17.652344c0 4.875-3.949219 8.824219-8.824219 8.824219h-52.960937c-4.875 0-8.828125-3.949219-8.828125-8.824219v-17.65625c0-4.875-3.953125-8.824219-8.828125-8.824219h-26.476563c-14.625 0-26.480468 11.855469-26.480468 26.480469v291.28125c0 4.875 3.949218 8.828125 8.824218 8.828125h176.535157c4.875 0 8.828125-3.953125 8.828125-8.828125v-105.921875h17.652344zm0 0"/><path d="m511.066406 393.765625-8.824218-17.652344c-2.179688-4.363281-7.484376-6.132812-11.847657-3.953125-4.363281 2.175782-6.132812 7.480469-3.953125 11.84375l8.828125 17.652344c2.175781 4.363281 7.480469 6.132812 11.84375 3.957031 4.363281-2.179687 6.132813-7.484375 3.953125-11.847656zm0 0"/><path d="m308.054688 270.191406c-2.179688-4.363281-7.484376-6.132812-11.847657-3.953125-4.363281 2.179688-6.132812 7.480469-3.953125 11.84375l8.824219 17.65625c2.179687 4.363281 7.484375 6.132813 11.847656 3.953125 4.363281-2.179687 6.132813-7.484375 3.953125-11.847656zm0 0"/><path d="m475.761719 323.152344c-2.179688-4.363282-7.484375-6.132813-11.847657-3.953125-4.363281 2.179687-6.132812 7.480469-3.953124 11.84375l8.824218 17.652343c2.179688 4.363282 7.484375 6.136719 11.847656 3.957032 4.363282-2.179688 6.132813-7.484375 3.953126-11.847656zm0 0"/><path d="m405.148438 323.152344c-2.179688-4.363282-7.484376-6.132813-11.847657-3.953125-4.363281 2.179687-6.132812 7.480469-3.953125 11.84375l8.824219 17.652343c2.179687 4.363282 7.484375 6.136719 11.847656 3.957032 4.363281-2.179688 6.132813-7.484375 3.953125-11.847656zm0 0"/><path d="m449.28125 270.191406c-2.179688-4.363281-7.484375-6.132812-11.847656-3.953125-4.363282 2.179688-6.132813 7.480469-3.953125 11.84375l8.828125 17.65625c2.175781 4.363281 7.480468 6.132813 11.84375 3.953125 4.363281-2.179687 6.132812-7.484375 3.953125-11.847656zm0 0"/><path d="m431.625 376.113281c-2.175781-4.363281-7.480469-6.132812-11.84375-3.953125-4.363281 2.175782-6.132812 7.480469-3.953125 11.84375l8.824219 17.652344c2.179687 4.363281 7.484375 6.132812 11.847656 3.957031 4.363281-2.179687 6.132812-7.484375 3.953125-11.847656zm0 0"/><path d="m378.667969 270.191406c-2.179688-4.363281-7.484375-6.132812-11.847657-3.953125-4.363281 2.179688-6.132812 7.480469-3.953124 11.84375l8.828124 17.65625c2.175782 4.363281 7.480469 6.132813 11.84375 3.953125 4.363282-2.179687 6.132813-7.484375 3.953126-11.847656zm0 0"/><path d="m334.53125 323.152344c-2.175781-4.363282-7.480469-6.132813-11.84375-3.953125-4.363281 2.179687-6.132812 7.480469-3.953125 11.84375l8.824219 17.652343c2.179687 4.363282 7.484375 6.136719 11.847656 3.957032 4.363281-2.179688 6.132812-7.484375 3.953125-11.847656zm0 0"/><path d="m361.011719 376.113281c-2.175781-4.363281-7.480469-6.132812-11.84375-3.953125-4.363281 2.175782-6.132813 7.480469-3.953125 11.84375l8.824218 17.652344c2.179688 4.363281 7.484376 6.132812 11.847657 3.957031 4.363281-2.179687 6.132812-7.484375 3.953125-11.847656zm0 0"/><path d="m355.621094 95.265625c3.109375.484375 5.726562 2.589844 6.867187 5.523437 1.757813 4.546876 6.871094 6.808594 11.421875 5.050782 4.546875-1.761719 6.808594-6.875 5.046875-11.421875-3.4375-8.8125-11.300781-15.132813-20.644531-16.597657-4.789062-.90625-9.410156 2.238282-10.316406 7.027344-.910156 4.789063 2.234375 9.410156 7.027344 10.320313.210937.039062.425781.070312.640624.09375h-.042968zm0 0"/><path d="m302.988281 34.316406c2.148438 4.386719 7.453125 6.199219 11.839844 4.046875 4.386719-2.152343 6.199219-7.453125 4.046875-11.84375l-7.804688-15.84375c-2.152343-4.386719-7.453124-6.199219-11.839843-4.046875s-6.199219 7.457032-4.046875 11.84375zm0 0"/><path d="m453.003906 135.363281-16.707031-5.675781c-4.613281-1.574219-9.628906.890625-11.207031 5.503906 0 .003906 0 .007813-.003906.011719-.308594.917969-.464844 1.878906-.46875 2.84375 0 3.78125 2.40625 7.140625 5.984374 8.359375l16.71875 5.683594c.917969.308594 1.875.46875 2.84375.46875 3.78125 0 7.140626-2.40625 8.359376-5.984375.304687-.917969.464843-1.878907.464843-2.84375.007813-3.78125-2.402343-7.148438-5.984375-8.367188zm0 0"/><path d="m429.085938 79.457031c1.347656.003907 2.679687-.296875 3.890624-.882812l15.886719-7.804688c4.375-2.152343 6.179688-7.445312 4.027344-11.820312s-7.445313-6.175781-11.820313-4.023438l-15.886718 7.804688c-3.027344 1.484375-4.941406 4.570312-4.933594 7.941406 0 4.875 3.949219 8.828125 8.824219 8.828125zm0 0"/><path d="m375.480469 34.414062c4.613281 1.574219 9.628906-.890624 11.203125-5.503906.003906-.003906.003906-.007812.007812-.015625l5.675782-16.714843c.308593-.917969.464843-1.878907.464843-2.84375.003907-4.875-3.945312-8.828126-8.820312-8.832032-3.785157-.003906-7.148438 2.40625-8.363281 5.988282l-5.683594 16.710937c-.3125.917969-.46875 1.882813-.46875 2.851563 0 3.777343 2.40625 7.140624 5.984375 8.359374zm0 0"/></svg>